<?xml version="1.0" encoding="utf-8" ?>
<svg baseProfile="full" height="256" version="1.1" width="256" xmlns="http://www.w3.org/2000/svg" xmlns:ev="http://www.w3.org/2001/xml-events" xmlns:xlink="http://www.w3.org/1999/xlink"><defs /><rect fill="white" height="256" stroke="gray" stroke-width="1" width="256" x="0" y="0" /><polyline fill="none" points="157,200 158,199 158,199 159,199 159,199 160,199 160,199 161,199 161,199 162,199 162,199 163,198 163,198 164,198 164,198 165,198 165,198 166,197 166,197 167,197 167,197 168,197 168,197 169,196 169,196 170,196 170,196 171,195 171,195 172,195 172,195 173,194 173,194 174,194 174,194 175,193 175,193 176,193 176,193 177,192 177,192 178,191 178,191 179,191 179,191 180,190 180,190 181,189 181,189 182,188 182,188 183,188 183,188 184,187 184,187 185,186 185,186 186,185 186,185 187,184 187,184 188,183 188,183 188,182 188,182 189,181 189,181 190,180 190,180 191,179 191,179 191,178 191,178 192,177 192,177 193,176 193,176 193,175 193,175 194,174 194,174 194,173 194,173 195,172 195,172 195,171 195,171 196,170 196,170 196,169 196,169 197,168 197,168 197,167 197,167 197,166 197,166 198,165 198,165 198,164 198,164 198,163 198,163 199,162 199,162 199,161 199,161 199,160 199,160 199,159 199,159 199,158 199,158 200,157 200,157 200,156 200,156 200,155 200,155 200,154 200,154 200,153 200,153 200,152 200,152 200,151 200,151 200,150 200,150 200,149 200,149 200,148 200,148 200,147 200,147 200,146 200,146 200,145 200,145 200,144 200,144 200,143 200,143 200,142 199,142 199,141 199,141 199,140 199,140 199,139 199,139 199,138 199,138 199,137 198,137 198,136 198,136 198,135 198,135 198,134 197,134 197,133 197,133 197,132 197,132 197,131 196,131 196,130 196,130 196,129 195,129 195,128 195,128 195,127 194,127 194,126 194,126 194,125 193,125 193,124 193,124 193,123 192,123 192,122 191,122 191,121 191,121 191,120 190,120 190,119 189,119 189,118 188,118 188,117 188,117 188,116 187,116 187,115 186,115 186,114 185,114 185,113 184,113 184,112 183,112 183,111 182,111 182,111 181,111 181,110 180,110 180,109 179,109 179,108 178,108 178,108 177,108 177,107 176,107 176,106 175,106 175,106 174,106 174,105 173,105 173,105 172,105 172,104 171,104 171,104 170,104 170,103 169,103 169,103 168,103 168,102 167,102 167,102 166,102 166,102 165,102 165,101 164,101 164,101 163,101 163,101 162,101 162,100 161,100 161,100 160,100 160,100 159,100 159,100 158,100 158,100 157,100 157,99 156,99 156,99 155,99 155,99 154,99 154,99 153,99 153,99 152,99 152,99 151,99 151,99 150,99 150,98 150,98 150,97 150,97 150,96 150,96 150,95 150,95 150,94 150,94 150,93 150,93 150,92 150,92 150,91 150,91 150,90 150,90 150,89 150,89 150,88 150,88 150,87 150,87 150,86 150,86 150,85 150,85 150,84 150,84 150,83 150,83 150,82 150,82 150,81 150,81 150,80 150,80 150,79 150,79 150,78 150,78 150,77 150,77 150,76 150,76 150,75 150,75 150,74 150,74 150,73 150,73 150,72 150,72 150,71 150,71 150,70 150,70 150,69 150,69 150,68 150,68 150,67 150,67 150,66 150,66 150,65 150,65 150,64 150,64 150,63 150,63 150,62 150,62 150,61 150,61 150,60 150,60 150,59 150,59 150,58 150,58 150,57 150,57 150,56 150,56 150,55 150,55 150,54 150,54 150,53 150,53 150,52 150,52 150,51 150,51 150,50 150,50 150,49 149,49 149,49 148,49 148,49 147,49 147,49 146,49 146,49 145,49 145,49 144,49 144,49 143,49 143,49 142,49 142,49 141,49 141,49 140,49 140,49 139,49 139,49 138,49 138,49 137,49 137,49 136,49 136,49 135,49 135,49 134,49 134,49 133,49 133,49 132,49 132,49 131,49 131,49 130,49 130,49 129,49 129,49 128,49 128,49 127,49 127,49 126,49 126,49 125,49 125,49 124,49 124,49 123,49 123,49 122,49 122,49 121,49 121,49 120,49 120,49 119,49 119,49 118,49 118,49 117,49 117,49 116,49 116,49 115,49 115,49 114,49 114,49 113,49 113,49 112,49 112,49 111,49 111,49 110,49 110,49 109,49 109,49 108,49 108,49 107,49 107,49 106,49 106,49 105,49 105,49 104,49 104,49 103,49 103,49 102,49 102,49 101,49 101,49 100,49 100,49 99,49 99,49 98,49 98,49 97,49 97,49 96,49 96,49 95,49 95,49 94,49 94,49 93,49 93,49 92,49 92,49 91,49 91,49 90,49 90,49 89,49 89,49 88,49 88,49 87,49 87,49 86,49 86,49 85,49 85,49 84,49 84,49 83,49 83,49 82,49 82,49 81,49 81,49 80,49 80,49 79,49 79,49 78,49 78,49 77,49 77,49 76,49 76,49 75,49 75,49 74,49 74,49 73,49 73,49 72,49 72,49 71,49 71,49 70,49 70,49 69,49 69,49 68,49 68,49 67,49 67,49 66,49 66,49 65,49 65,49 64,49 64,49 63,49 63,49 62,49 62,49 61,49 61,49 60,49 60,49 59,49 59,49 58,49 58,49 57,49 57,49 56,49 56,49 55,49 55,49 54,49 54,49 53,49 53,49 52,49 52,49 51,49 51,49 50,49 50,49 49,50 49,50 49,51 49,51 49,52 49,52 49,53 49,53 49,54 49,54 49,55 49,55 49,56 49,56 49,57 49,57 49,58 49,58 49,59 49,59 49,60 49,60 49,61 49,61 49,62 49,62 49,63 49,63 49,64 49,64 49,65 49,65 49,66 49,66 49,67 49,67 49,68 49,68 49,69 49,69 49,70 49,70 49,71 49,71 49,72 49,72 49,73 49,73 49,74 49,74 49,75 49,75 49,76 49,76 49,77 49,77 49,78 49,78 49,79 49,79 49,80 49,80 49,81 49,81 49,82 49,82 49,83 49,83 49,84 49,84 49,85 49,85 49,86 49,86 49,87 49,87 49,88 49,88 49,89 49,89 49,90 49,90 49,91 49,91 49,92 49,92 49,93 49,93 49,94 49,94 49,95 49,95 49,96 49,96 49,97 49,97 49,98 49,98 49,99 49,99 49,100 49,100 49,101 49,101 49,102 49,102 49,103 49,103 49,104 49,104 49,105 49,105 49,106 49,106 49,107 49,107 49,108 49,108 49,109 49,109 49,110 49,110 49,111 49,111 49,112 49,112 49,113 49,113 49,114 49,114 49,115 49,115 49,116 49,116 49,117 49,117 49,118 49,118 49,119 49,119 49,120 49,120 49,121 49,121 49,122 49,122 49,123 49,123 49,124 49,124 49,125 49,125 49,126 49,126 49,127 49,127 49,128 49,128 49,129 49,129 49,130 49,130 49,131 49,131 49,132 49,132 49,133 49,133 49,134 49,134 49,135 49,135 49,136 49,136 49,137 49,137 49,138 49,138 49,139 49,139 49,140 49,140 49,141 49,141 49,142 49,142 49,143 49,143 49,144 49,144 49,145 49,145 49,146 49,146 49,147 49,147 49,148 49,148 49,149 49,149 49,150 50,150 50,150 51,150 51,150 52,150 52,150 53,150 53,150 54,150 54,150 55,150 55,150 56,150 56,150 57,150 57,150 58,150 58,150 59,150 59,150 60,150 60,150 61,150 61,150 62,150 62,150 63,150 63,150 64,150 64,150 65,150 65,150 66,150 66,150 67,150 67,150 68,150 68,150 69,150 69,150 70,150 70,150 71,150 71,150 72,150 72,150 73,150 73,150 74,150 74,150 75,150 75,150 76,150 76,150 77,150 77,150 78,150 78,150 79,150 79,150 80,150 80,150 81,150 81,150 82,150 82,150 83,150 83,150 84,150 84,150 85,150 85,150 86,150 86,150 87,150 87,150 88,150 88,150 89,150 89,150 90,150 90,150 91,150 91,150 92,150 92,150 93,150 93,150 94,150 94,150 95,150 95,150 96,150 96,150 97,150 97,150 98,150 98,150 99,150 99,151 99,151 99,152 99,152 99,153 99,153 99,154 99,154 99,155 99,155 99,156 99,156 99,157 100,157 100,158 100,158 100,159 100,159 100,160 100,160 100,161 100,161 100,162 101,162 101,163 101,163 101,164 101,164 101,165 102,165 102,166 102,166 102,167 102,167 102,168 103,168 103,169 103,169 103,170 104,170 104,171 104,171 104,172 105,172 105,173 105,173 105,174 106,174 106,175 106,175 106,176 107,176 107,177 108,177 108,178 108,178 108,179 109,179 109,180 110,180 110,181 111,181 111,182 111,182 111,183 112,183 112,184 113,184 113,185 114,185 114,186 115,186 115,187 116,187 116,188 117,188 117,188 118,188 118,189 119,189 119,190 120,190 120,191 121,191 121,191 122,191 122,192 123,192 123,193 124,193 124,193 125,193 125,194 126,194 126,194 127,194 127,195 128,195 128,195 129,195 129,196 130,196 130,196 131,196 131,197 132,197 132,197 133,197 133,197 134,197 134,198 135,198 135,198 136,198 136,198 137,198 137,199 138,199 138,199 139,199 139,199 140,199 140,199 141,199 141,199 142,199 142,200 143,200 143,200 144,200 144,200 145,200 145,200 146,200 146,200 147,200 147,200 148,200 148,200 149,200 149,200 150,200 150,200 151,200 151,200 152,200 152,200 153,200 153,200 154,200 154,200 155,200 155,200 156,200 156,200 157,200 157,200" stroke="#88ddff" stroke-width="1" /><text alignment-baseline="middle" fill="#88ddff" font-size="10" stroke="#88ddff" text-anchor="middle" x="0" y="0">0</text><text alignment-baseline="middle" fill="#88ddff" font-size="10" stroke="#88ddff" text-anchor="middle" x="20" y="0">0</text><text alignment-baseline="middle" fill="#88ddff" font-size="10" stroke="#88ddff" text-anchor="middle" x="40" y="0">0</text><text alignment-baseline="middle" fill="#88ddff" font-size="10" stroke="#88ddff" text-anchor="middle" x="60" y="0">0</text><text alignment-baseline="middle" fill="#88ddff" font-size="10" stroke="#88ddff" text-anchor="middle" x="80" y="0">0</text><text alignment-baseline="middle" fill="#88ddff" font-size="10" stroke="#88ddff" text-anchor="middle" x="100" y="0">0</text><text alignment-baseline="middle" fill="#88ddff" font-size="10" stroke="#88ddff" text-anchor="middle" x="120" y="0">0</text><text alignment-baseline="middle" fill="#88ddff" font-size="10" stroke="#88ddff" text-anchor="middle" x="140" y="0">0</text><text alignment-baseline="middle" fill="#88ddff" font-size="10" stroke="#88ddff" text-anchor="middle" x="160" y="0">0</text><text alignment-baseline="middle" fill="#88ddff" font-size="10" stroke="#88ddff" text-anchor="middle" x="180" y="0">0</text><text alignment-baseline="middle" fill="#88ddff" font-size="10" stroke="#88ddff" text-anchor="middle" x="200" y="0">0</text><text alignment-baseline="middle" fill="#88ddff" font-size="10" stroke="#88ddff" text-anchor="middle" x="220" y="0">0</text><text alignment-baseline="middle" fill="#88ddff" font-size="10" stroke="#88ddff" text-anchor="middle" x="240" y="0">0</text><text alignment-baseline="middle" fill="#88ddff" font-size="10" stroke="#88ddff" text-anchor="middle" x="10" y="20">0</text><text alignment-baseline="middle" fill="#88ddff" font-size="10" stroke="#88ddff" text-anchor="middle" x="30" y="20">0</text><text alignment-baseline="middle" fill="#88ddff" font-size="10" stroke="#88ddff" text-anchor="middle" x="50" y="20">0</text><text alignment-baseline="middle" fill="#88ddff" font-size="10" stroke="#88ddff" text-anchor="middle" x="70" y="20">0</text><text alignment-baseline="middle" fill="#88ddff" font-size="10" stroke="#88ddff" text-anchor="middle" x="90" y="20">0</text><text alignment-baseline="middle" fill="#88ddff" font-size="10" stroke="#88ddff" text-anchor="middle" x="110" y="20">0</text><text alignment-baseline="middle" fill="#88ddff" font-size="10" stroke="#88ddff" text-anchor="middle" x="130" y="20">0</text><text alignment-baseline="middle" fill="#88ddff" font-size="10" stroke="#88ddff" text-anchor="middle" x="150" y="20">0</text><text alignment-baseline="middle" fill="#88ddff" font-size="10" stroke="#88ddff" text-anchor="middle" x="170" y="20">0</text><text alignment-baseline="middle" fill="#88ddff" font-size="10" stroke="#88ddff" text-anchor="middle" x="190" y="20">0</text><text alignment-baseline="middle" fill="#88ddff" font-size="10" stroke="#88ddff" text-anchor="middle" x="210" y="20">0</text><text alignment-baseline="middle" fill="#88ddff" font-size="10" stroke="#88ddff" text-anchor="middle" x="230" y="20">0</text><text alignment-baseline="middle" fill="#88ddff" font-size="10" stroke="#88ddff" text-anchor="middle" x="250" y="20">0</text><text alignment-baseline="middle" fill="#88ddff" font-size="10" stroke="#88ddff" text-anchor="middle" x="0" y="40">0</text><text alignment-baseline="middle" fill="#88ddff" font-size="10" stroke="#88ddff" text-anchor="middle" x="20" y="40">0</text><text alignment-baseline="middle" fill="#88ddff" font-size="10" stroke="#88ddff" text-anchor="middle" x="40" y="40">0</text><text alignment-baseline="middle" fill="#88ddff" font-size="10" stroke="#88ddff" text-anchor="middle" x="60" y="40">0</text><text alignment-baseline="middle" fill="#88ddff" font-size="10" stroke="#88ddff" text-anchor="middle" x="80" y="40">0</text><text alignment-baseline="middle" fill="#88ddff" font-size="10" stroke="#88ddff" text-anchor="middle" x="100" y="40">0</text><text alignment-baseline="middle" fill="#88ddff" font-size="10" stroke="#88ddff" text-anchor="middle" x="120" y="40">0</text><text alignment-baseline="middle" fill="#88ddff" font-size="10" stroke="#88ddff" text-anchor="middle" x="140" y="40">0</text><text alignment-baseline="middle" fill="#88ddff" font-size="10" stroke="#88ddff" text-anchor="middle" x="160" y="40">0</text><text alignment-baseline="middle" fill="#88ddff" font-size="10" stroke="#88ddff" text-anchor="middle" x="180" y="40">0</text><text alignment-baseline="middle" fill="#88ddff" font-size="10" stroke="#88ddff" text-anchor="middle" x="200" y="40">0</text><text alignment-baseline="middle" fill="#88ddff" font-size="10" stroke="#88ddff" text-anchor="middle" x="220" y="40">0</text><text alignment-baseline="middle" fill="#88ddff" font-size="10" stroke="#88ddff" text-anchor="middle" x="240" y="40">0</text><text alignment-baseline="middle" fill="#88ddff" font-size="10" stroke="#88ddff" text-anchor="middle" x="10" y="60">0</text><text alignment-baseline="middle" fill="#88ddff" font-size="10" stroke="#88ddff" text-anchor="middle" x="30" y="60">0</text><text alignment-baseline="middle" fill="#88ddff" font-size="10" stroke="#88ddff" text-anchor="middle" x="170" y="60">0</text><text alignment-baseline="middle" fill="#88ddff" font-size="10" stroke="#88ddff" text-anchor="middle" x="190" y="60">0</text><text alignment-baseline="middle" fill="#88ddff" font-size="10" stroke="#88ddff" text-anchor="middle" x="210" y="60">0</text><text alignment-baseline="middle" fill="#88ddff" font-size="10" stroke="#88ddff" text-anchor="middle" x="230" y="60">0</text><text alignment-baseline="middle" fill="#88ddff" font-size="10" stroke="#88ddff" text-anchor="middle" x="250" y="60">0</text><text alignment-baseline="middle" fill="#88ddff" font-size="10" stroke="#88ddff" text-anchor="middle" x="0" y="80">0</text><text alignment-baseline="middle" fill="#88ddff" font-size="10" stroke="#88ddff" text-anchor="middle" x="20" y="80">0</text><text alignment-baseline="middle" fill="#88ddff" font-size="10" stroke="#88ddff" text-anchor="middle" x="40" y="80">0</text><text alignment-baseline="middle" fill="#88ddff" font-size="10" stroke="#88ddff" text-anchor="middle" x="160" y="80">0</text><text alignment-baseline="middle" fill="#88ddff" font-size="10" stroke="#88ddff" text-anchor="middle" x="180" y="80">0</text><text alignment-baseline="middle" fill="#88ddff" font-size="10" stroke="#88ddff" text-anchor="middle" x="200" y="80">0</text><text alignment-baseline="middle" fill="#88ddff" font-size="10" stroke="#88ddff" text-anchor="middle" x="220" y="80">0</text><text alignment-baseline="middle" fill="#88ddff" font-size="10" stroke="#88ddff" text-anchor="middle" x="240" y="80">0</text><text alignment-baseline="middle" fill="#88ddff" font-size="10" stroke="#88ddff" text-anchor="middle" x="10" y="100">0</text><text alignment-baseline="middle" fill="#88ddff" font-size="10" stroke="#88ddff" text-anchor="middle" x="30" y="100">0</text><text alignment-baseline="middle" fill="#88ddff" font-size="10" stroke="#88ddff" text-anchor="middle" x="170" y="100">0</text><text alignment-baseline="middle" fill="#88ddff" font-size="10" stroke="#88ddff" text-anchor="middle" x="190" y="100">0</text><text alignment-baseline="middle" fill="#88ddff" font-size="10" stroke="#88ddff" text-anchor="middle" x="210" y="100">0</text><text alignment-baseline="middle" fill="#88ddff" font-size="10" stroke="#88ddff" text-anchor="middle" x="230" y="100">0</text><text alignment-baseline="middle" fill="#88ddff" font-size="10" stroke="#88ddff" text-anchor="middle" x="250" y="100">0</text><text alignment-baseline="middle" fill="#88ddff" font-size="10" stroke="#88ddff" text-anchor="middle" x="0" y="120">0</text><text alignment-baseline="middle" fill="#88ddff" font-size="10" stroke="#88ddff" text-anchor="middle" x="20" y="120">0</text><text alignment-baseline="middle" fill="#88ddff" font-size="10" stroke="#88ddff" text-anchor="middle" x="40" y="120">0</text><text alignment-baseline="middle" fill="#88ddff" font-size="10" stroke="#88ddff" text-anchor="middle" x="200" y="120">0</text><text alignment-baseline="middle" fill="#88ddff" font-size="10" stroke="#88ddff" text-anchor="middle" x="220" y="120">0</text><text alignment-baseline="middle" fill="#88ddff" font-size="10" stroke="#88ddff" text-anchor="middle" x="240" y="120">0</text><text alignment-baseline="middle" fill="#88ddff" font-size="10" stroke="#88ddff" text-anchor="middle" x="10" y="140">0</text><text alignment-baseline="middle" fill="#88ddff" font-size="10" stroke="#88ddff" text-anchor="middle" x="30" y="140">0</text><text alignment-baseline="middle" fill="#88ddff" font-size="10" stroke="#88ddff" text-anchor="middle" x="210" y="140">0</text><text alignment-baseline="middle" fill="#88ddff" font-size="10" stroke="#88ddff" text-anchor="middle" x="230" y="140">0</text><text alignment-baseline="middle" fill="#88ddff" font-size="10" stroke="#88ddff" text-anchor="middle" x="250" y="140">0</text><text alignment-baseline="middle" fill="#88ddff" font-size="10" stroke="#88ddff" text-anchor="middle" x="0" y="160">0</text><text alignment-baseline="middle" fill="#88ddff" font-size="10" stroke="#88ddff" text-anchor="middle" x="20" y="160">0</text><text alignment-baseline="middle" fill="#88ddff" font-size="10" stroke="#88ddff" text-anchor="middle" x="40" y="160">0</text><text alignment-baseline="middle" fill="#88ddff" font-size="10" stroke="#88ddff" text-anchor="middle" x="60" y="160">0</text><text alignment-baseline="middle" fill="#88ddff" font-size="10" stroke="#88ddff" text-anchor="middle" x="80" y="160">0</text><text alignment-baseline="middle" fill="#88ddff" font-size="10" stroke="#88ddff" text-anchor="middle" x="220" y="160">0</text><text alignment-baseline="middle" fill="#88ddff" font-size="10" stroke="#88ddff" text-anchor="middle" x="240" y="160">0</text><text alignment-baseline="middle" fill="#88ddff" font-size="10" stroke="#88ddff" text-anchor="middle" x="10" y="180">0</text><text alignment-baseline="middle" fill="#88ddff" font-size="10" stroke="#88ddff" text-anchor="middle" x="30" y="180">0</text><text alignment-baseline="middle" fill="#88ddff" font-size="10" stroke="#88ddff" text-anchor="middle" x="50" y="180">0</text><text alignment-baseline="middle" fill="#88ddff" font-size="10" stroke="#88ddff" text-anchor="middle" x="70" y="180">0</text><text alignment-baseline="middle" fill="#88ddff" font-size="10" stroke="#88ddff" text-anchor="middle" x="90" y="180">0</text><text alignment-baseline="middle" fill="#88ddff" font-size="10" stroke="#88ddff" text-anchor="middle" x="210" y="180">0</text><text alignment-baseline="middle" fill="#88ddff" font-size="10" stroke="#88ddff" text-anchor="middle" x="230" y="180">0</text><text alignment-baseline="middle" fill="#88ddff" font-size="10" stroke="#88ddff" text-anchor="middle" x="250" y="180">0</text><text alignment-baseline="middle" fill="#88ddff" font-size="10" stroke="#88ddff" text-anchor="middle" x="0" y="200">0</text><text alignment-baseline="middle" fill="#88ddff" font-size="10" stroke="#88ddff" text-anchor="middle" x="20" y="200">0</text><text alignment-baseline="middle" fill="#88ddff" font-size="10" stroke="#88ddff" text-anchor="middle" x="40" y="200">0</text><text alignment-baseline="middle" fill="#88ddff" font-size="10" stroke="#88ddff" text-anchor="middle" x="60" y="200">0</text><text alignment-baseline="middle" fill="#88ddff" font-size="10" stroke="#88ddff" text-anchor="middle" x="80" y="200">0</text><text alignment-baseline="middle" fill="#88ddff" font-size="10" stroke="#88ddff" text-anchor="middle" x="100" y="200">0</text><text alignment-baseline="middle" fill="#88ddff" font-size="10" stroke="#88ddff" text-anchor="middle" x="120" y="200">0</text><text alignment-baseline="middle" fill="#88ddff" font-size="10" stroke="#88ddff" text-anchor="middle" x="180" y="200">0</text><text alignment-baseline="middle" fill="#88ddff" font-size="10" stroke="#88ddff" text-anchor="middle" x="200" y="200">0</text><text alignment-baseline="middle" fill="#88ddff" font-size="10" stroke="#88ddff" text-anchor="middle" x="220" y="200">0</text><text alignment-baseline="middle" fill="#88ddff" font-size="10" stroke="#88ddff" text-anchor="middle" x="240" y="200">0</text><text alignment-baseline="middle" fill="#88ddff" font-size="10" stroke="#88ddff" text-anchor="middle" x="10" y="220">0</text><text alignment-baseline="middle" fill="#88ddff" font-size="10" stroke="#88ddff" text-anchor="middle" x="30" y="220">0</text><text alignment-baseline="middle" fill="#88ddff" font-size="10" stroke="#88ddff" text-anchor="middle" x="50" y="220">0</text><text alignment-baseline="middle" fill="#88ddff" font-size="10" stroke="#88ddff" text-anchor="middle" x="70" y="220">0</text><text alignment-baseline="middle" fill="#88ddff" font-size="10" stroke="#88ddff" text-anchor="middle" x="90" y="220">0</text><text alignment-baseline="middle" fill="#88ddff" font-size="10" stroke="#88ddff" text-anchor="middle" x="110" y="220">0</text><text alignment-baseline="middle" fill="#88ddff" font-size="10" stroke="#88ddff" text-anchor="middle" x="130" y="220">0</text><text alignment-baseline="middle" fill="#88ddff" font-size="10" stroke="#88ddff" text-anchor="middle" x="150" y="220">0</text><text alignment-baseline="middle" fill="#88ddff" font-size="10" stroke="#88ddff" text-anchor="middle" x="170" y="220">0</text><text alignment-baseline="middle" fill="#88ddff" font-size="10" stroke="#88ddff" text-anchor="middle" x="190" y="220">0</text><text alignment-baseline="middle" fill="#88ddff" font-size="10" stroke="#88ddff" text-anchor="middle" x="210" y="220">0</text><text alignment-baseline="middle" fill="#88ddff" font-size="10" stroke="#88ddff" text-anchor="middle" x="230" y="220">0</text><text alignment-baseline="middle" fill="#88ddff" font-size="10" stroke="#88ddff" text-anchor="middle" x="250" y="220">0</text><text alignment-baseline="middle" fill="#88ddff" font-size="10" stroke="#88ddff" text-anchor="middle" x="0" y="240">0</text><text alignment-baseline="middle" fill="#88ddff" font-size="10" stroke="#88ddff" text-anchor="middle" x="20" y="240">0</text><text alignment-baseline="middle" fill="#88ddff" font-size="10" stroke="#88ddff" text-anchor="middle" x="40" y="240">0</text><text alignment-baseline="middle" fill="#88ddff" font-size="10" stroke="#88ddff" text-anchor="middle" x="60" y="240">0</text><text alignment-baseline="middle" fill="#88ddff" font-size="10" stroke="#88ddff" text-anchor="middle" x="80" y="240">0</text><text alignment-baseline="middle" fill="#88ddff" font-size="10" stroke="#88ddff" text-anchor="middle" x="100" y="240">0</text><text alignment-baseline="middle" fill="#88ddff" font-size="10" stroke="#88ddff" text-anchor="middle" x="120" y="240">0</text><text alignment-baseline="middle" fill="#88ddff" font-size="10" stroke="#88ddff" text-anchor="middle" x="140" y="240">0</text><text alignment-baseline="middle" fill="#88ddff" font-size="10" stroke="#88ddff" text-anchor="middle" x="160" y="240">0</text><text alignment-baseline="middle" fill="#88ddff" font-size="10" stroke="#88ddff" text-anchor="middle" x="180" y="240">0</text><text alignment-baseline="middle" fill="#88ddff" font-size="10" stroke="#88ddff" text-anchor="middle" x="200" y="240">0</text><text alignment-baseline="middle" fill="#88ddff" font-size="10" stroke="#88ddff" text-anchor="middle" x="220" y="240">0</text><text alignment-baseline="middle" fill="#88ddff" font-size="10" stroke="#88ddff" text-anchor="middle" x="240" y="240">0</text><polyline fill="none" points="99,150 98,150 98,150 97,150 97,150 96,150 96,150 95,150 95,150 94,150 94,150 93,150 93,150 92,150 92,150 91,150 91,150 90,150 90,150 89,150 89,150 88,150 88,150 87,150 87,150 86,150 86,150 85,150 85,150 84,150 84,150 83,150 83,150 82,150 82,150 81,150 81,150 80,150 80,150 79,150 79,150 78,150 78,150 77,150 77,150 76,150 76,150 75,150 75,150 74,150 74,150 73,150 73,150 72,150 72,150 71,150 71,150 70,150 70,150 69,150 69,150 68,150 68,150 67,150 67,150 66,150 66,150 65,150 65,150 64,150 64,150 63,150 63,150 62,150 62,150 61,150 61,150 60,150 60,150 59,150 59,150 58,150 58,150 57,150 57,150 56,150 56,150 55,150 55,150 54,150 54,150 53,150 53,150 52,150 52,150 51,150 51,150 50,150 50,150 49,150 49,149 49,149 49,148 49,148 49,147 49,147 49,146 49,146 49,145 49,145 49,144 49,144 49,143 49,143 49,142 49,142 49,141 49,141 49,140 49,140 49,139 49,139 49,138 49,138 49,137 49,137 49,136 49,136 49,135 49,135 49,134 49,134 49,133 49,133 49,132 49,132 49,131 49,131 49,130 49,130 49,129 49,129 49,128 49,128 49,127 49,127 49,126 49,126 49,125 49,125 49,124 49,124 49,123 49,123 49,122 49,122 49,121 49,121 49,120 49,120 49,119 49,119 49,118 49,118 49,117 49,117 49,116 49,116 49,115 49,115 49,114 49,114 49,113 49,113 49,112 49,112 49,111 49,111 49,110 49,110 49,109 49,109 49,108 49,108 49,107 49,107 49,106 49,106 49,105 49,105 49,104 49,104 49,103 49,103 49,102 49,102 49,101 49,101 49,100 49,100 49,99 49,99 49,98 49,98 49,97 49,97 49,96 49,96 49,95 49,95 49,94 49,94 49,93 49,93 49,92 49,92 49,91 49,91 49,90 49,90 49,89 49,89 49,88 49,88 49,87 49,87 49,86 49,86 49,85 49,85 49,84 49,84 49,83 49,83 49,82 49,82 49,81 49,81 49,80 49,80 49,79 49,79 49,78 49,78 49,77 49,77 49,76 49,76 49,75 49,75 49,74 49,74 49,73 49,73 49,72 49,72 49,71 49,71 49,70 49,70 49,69 49,69 49,68 49,68 49,67 49,67 49,66 49,66 49,65 49,65 49,64 49,64 49,63 49,63 49,62 49,62 49,61 49,61 49,60 49,60 49,59 49,59 49,58 49,58 49,57 49,57 49,56 49,56 49,55 49,55 49,54 49,54 49,53 49,53 49,52 49,52 49,51 49,51 49,50 49,50 50,49 50,49 51,49 51,49 52,49 52,49 53,49 53,49 54,49 54,49 55,49 55,49 56,49 56,49 57,49 57,49 58,49 58,49 59,49 59,49 60,49 60,49 61,49 61,49 62,49 62,49 63,49 63,49 64,49 64,49 65,49 65,49 66,49 66,49 67,49 67,49 68,49 68,49 69,49 69,49 70,49 70,49 71,49 71,49 72,49 72,49 73,49 73,49 74,49 74,49 75,49 75,49 76,49 76,49 77,49 77,49 78,49 78,49 79,49 79,49 80,49 80,49 81,49 81,49 82,49 82,49 83,49 83,49 84,49 84,49 85,49 85,49 86,49 86,49 87,49 87,49 88,49 88,49 89,49 89,49 90,49 90,49 91,49 91,49 92,49 92,49 93,49 93,49 94,49 94,49 95,49 95,49 96,49 96,49 97,49 97,49 98,49 98,49 99,49 99,49 100,49 100,49 101,49 101,49 102,49 102,49 103,49 103,49 104,49 104,49 105,49 105,49 106,49 106,49 107,49 107,49 108,49 108,49 109,49 109,49 110,49 110,49 111,49 111,49 112,49 112,49 113,49 113,49 114,49 114,49 115,49 115,49 116,49 116,49 117,49 117,49 118,49 118,49 119,49 119,49 120,49 120,49 121,49 121,49 122,49 122,49 123,49 123,49 124,49 124,49 125,49 125,49 126,49 126,49 127,49 127,49 128,49 128,49 129,49 129,49 130,49 130,49 131,49 131,49 132,49 132,49 133,49 133,49 134,49 134,49 135,49 135,49 136,49 136,49 137,49 137,49 138,49 138,49 139,49 139,49 140,49 140,49 141,49 141,49 142,49 142,49 143,49 143,49 144,49 144,49 145,49 145,49 146,49 146,49 147,49 147,49 148,49 148,49 149,49 149,49 150,49 150,50 150,50 150,51 150,51 150,52 150,52 150,53 150,53 150,54 150,54 150,55 150,55 150,56 150,56 150,57 150,57 150,58 150,58 150,59 150,59 150,60 150,60 150,61 150,61 150,62 150,62 150,63 150,63 150,64 150,64 150,65 150,65 150,66 150,66 150,67 150,67 150,68 150,68 150,69 150,69 150,70 150,70 150,71 150,71 150,72 150,72 150,73 150,73 150,74 150,74 150,75 150,75 150,76 150,76 150,77 150,77 150,78 150,78 150,79 150,79 150,80 150,80 150,81 150,81 150,82 150,82 150,83 150,83 150,84 150,84 150,85 150,85 150,86 150,86 150,87 150,87 150,88 150,88 150,89 150,89 150,90 150,90 150,91 150,91 150,92 150,92 150,93 150,93 150,94 150,94 150,95 150,95 150,96 150,96 150,97 150,97 150,98 150,98 150,99 150,99 149,99 149,99 148,99 148,99 147,99 147,99 146,99 146,99 145,99 145,99 144,99 144,99 143,99 143,99 142,100 142,100 141,100 141,100 140,100 140,100 139,100 139,100 138,100 138,100 137,101 137,101 136,101 136,101 135,101 135,101 134,102 134,102 133,102 133,102 132,102 132,102 131,103 131,103 130,103 130,103 129,104 129,104 128,104 128,104 127,105 127,105 126,105 126,105 125,106 125,106 124,106 124,106 123,107 123,107 122,108 122,108 121,108 121,108 120,109 120,109 119,110 119,110 118,111 118,111 117,111 117,111 116,112 116,112 115,113 115,113 114,114 114,114 113,115 113,115 112,116 112,116 111,117 111,117 111,118 111,118 110,119 110,119 109,120 109,120 108,121 108,121 108,122 108,122 107,123 107,123 106,124 106,124 106,125 106,125 105,126 105,126 105,127 105,127 104,128 104,128 104,129 104,129 103,130 103,130 103,131 103,131 102,132 102,132 102,133 102,133 102,134 102,134 101,135 101,135 101,136 101,136 101,137 101,137 100,138 100,138 100,139 100,139 100,140 100,140 100,141 100,141 100,142 100,142 99,143 99,143 99,144 99,144 99,145 99,145 99,146 99,146 99,147 99,147 99,148 99,148 99,149 99,149 99,150 99,150" stroke="#88ddff" stroke-width="1" /><text alignment-baseline="middle" fill="#88ddff" font-size="10" stroke="#88ddff" text-anchor="middle" x="60" y="70">1</text><text alignment-baseline="middle" fill="#88ddff" font-size="10" stroke="#88ddff" text-anchor="middle" x="80" y="70">1</text><text alignment-baseline="middle" fill="#88ddff" font-size="10" stroke="#88ddff" text-anchor="middle" x="100" y="70">1</text><text alignment-baseline="middle" fill="#88ddff" font-size="10" stroke="#88ddff" text-anchor="middle" x="120" y="70">1</text><text alignment-baseline="middle" fill="#88ddff" font-size="10" stroke="#88ddff" text-anchor="middle" x="140" y="70">1</text><text alignment-baseline="middle" fill="#88ddff" font-size="10" stroke="#88ddff" text-anchor="middle" x="70" y="90">1</text><text alignment-baseline="middle" fill="#88ddff" font-size="10" stroke="#88ddff" text-anchor="middle" x="90" y="90">1</text><text alignment-baseline="middle" fill="#88ddff" font-size="10" stroke="#88ddff" text-anchor="middle" x="110" y="90">1</text><text alignment-baseline="middle" fill="#88ddff" font-size="10" stroke="#88ddff" text-anchor="middle" x="130" y="90">1</text><text alignment-baseline="middle" fill="#88ddff" font-size="10" stroke="#88ddff" text-anchor="middle" x="60" y="110">1</text><text alignment-baseline="middle" fill="#88ddff" font-size="10" stroke="#88ddff" text-anchor="middle" x="80" y="110">1</text><text alignment-baseline="middle" fill="#88ddff" font-size="10" stroke="#88ddff" text-anchor="middle" x="100" y="110">1</text><text alignment-baseline="middle" fill="#88ddff" font-size="10" stroke="#88ddff" text-anchor="middle" x="70" y="130">1</text><text alignment-baseline="middle" fill="#88ddff" font-size="10" stroke="#88ddff" text-anchor="middle" x="90" y="130">1</text><polyline fill="none" points="157,200 156,200 156,200 155,200 155,200 154,200 154,200 153,200 153,200 152,200 152,200 151,200 151,200 150,200 150,200 149,200 149,200 148,200 148,200 147,200 147,200 146,200 146,200 145,200 145,200 144,200 144,200 143,200 143,200 142,200 142,199 141,199 141,199 140,199 140,199 139,199 139,199 138,199 138,199 137,199 137,198 136,198 136,198 135,198 135,198 134,198 134,197 133,197 133,197 132,197 132,197 131,197 131,196 130,196 130,196 129,196 129,195 128,195 128,195 127,195 127,194 126,194 126,194 125,194 125,193 124,193 124,193 123,193 123,192 122,192 122,191 121,191 121,191 120,191 120,190 119,190 119,189 118,189 118,188 117,188 117,188 116,188 116,187 115,187 115,186 114,186 114,185 113,185 113,184 112,184 112,183 111,183 111,182 111,182 111,181 110,181 110,180 109,180 109,179 108,179 108,178 108,178 108,177 107,177 107,176 106,176 106,175 106,175 106,174 105,174 105,173 105,173 105,172 104,172 104,171 104,171 104,170 103,170 103,169 103,169 103,168 102,168 102,167 102,167 102,166 102,166 102,165 101,165 101,164 101,164 101,163 101,163 101,162 100,162 100,161 100,161 100,160 100,160 100,159 100,159 100,158 100,158 100,157 99,157 99,156 99,156 99,155 99,155 99,154 99,154 99,153 99,153 99,152 99,152 99,151 99,151 99,150 99,150 99,149 99,149 99,148 99,148 99,147 99,147 99,146 99,146 99,145 99,145 99,144 99,144 99,143 99,143 100,142 100,142 100,141 100,141 100,140 100,140 100,139 100,139 100,138 100,138 101,137 101,137 101,136 101,136 101,135 101,135 102,134 102,134 102,133 102,133 102,132 102,132 103,131 103,131 103,130 103,130 104,129 104,129 104,128 104,128 105,127 105,127 105,126 105,126 106,125 106,125 106,124 106,124 107,123 107,123 108,122 108,122 108,121 108,121 109,120 109,120 110,119 110,119 111,118 111,118 111,117 111,117 112,116 112,116 113,115 113,115 114,114 114,114 115,113 115,113 116,112 116,112 117,111 117,111 118,111 118,111 119,110 119,110 120,109 120,109 121,108 121,108 122,108 122,108 123,107 123,107 124,106 124,106 125,106 125,106 126,105 126,105 127,105 127,105 128,104 128,104 129,104 129,104 130,103 130,103 131,103 131,103 132,102 132,102 133,102 133,102 134,102 134,102 135,101 135,101 136,101 136,101 137,101 137,101 138,100 138,100 139,100 139,100 140,100 140,100 141,100 141,100 142,100 142,100 143,99 143,99 144,99 144,99 145,99 145,99 146,99 146,99 147,99 147,99 148,99 148,99 149,99 149,99 150,99 150,99 151,99 151,99 152,99 152,99 153,99 153,99 154,99 154,99 155,99 155,99 156,99 156,99 157,99 157,100 158,100 158,100 159,100 159,100 160,100 160,100 161,100 161,100 162,100 162,101 163,101 163,101 164,101 164,101 165,101 165,102 166,102 166,102 167,102 167,102 168,102 168,103 169,103 169,103 170,103 170,104 171,104 171,104 172,104 172,105 173,105 173,105 174,105 174,106 175,106 175,106 176,106 176,107 177,107 177,108 178,108 178,108 179,108 179,109 180,109 180,110 181,110 181,111 182,111 182,111 183,111 183,112 184,112 184,113 185,113 185,114 186,114 186,115 187,115 187,116 188,116 188,117 188,117 188,118 189,118 189,119 190,119 190,120 191,120 191,121 191,121 191,122 192,122 192,123 193,123 193,124 193,124 193,125 194,125 194,126 194,126 194,127 195,127 195,128 195,128 195,129 196,129 196,130 196,130 196,131 197,131 197,132 197,132 197,133 197,133 197,134 198,134 198,135 198,135 198,136 198,136 198,137 199,137 199,138 199,138 199,139 199,139 199,140 199,140 199,141 199,141 199,142 200,142 200,143 200,143 200,144 200,144 200,145 200,145 200,146 200,146 200,147 200,147 200,148 200,148 200,149 200,149 200,150 200,150 200,151 200,151 200,152 200,152 200,153 200,153 200,154 200,154 200,155 200,155 200,156 200,156 200,157 200,157 199,158 199,158 199,159 199,159 199,160 199,160 199,161 199,161 199,162 199,162 198,163 198,163 198,164 198,164 198,165 198,165 197,166 197,166 197,167 197,167 197,168 197,168 196,169 196,169 196,170 196,170 195,171 195,171 195,172 195,172 194,173 194,173 194,174 194,174 193,175 193,175 193,176 193,176 192,177 192,177 191,178 191,178 191,179 191,179 190,180 190,180 189,181 189,181 188,182 188,182 188,183 188,183 187,184 187,184 186,185 186,185 185,186 185,186 184,187 184,187 183,188 183,188 182,188 182,188 181,189 181,189 180,190 180,190 179,191 179,191 178,191 178,191 177,192 177,192 176,193 176,193 175,193 175,193 174,194 174,194 173,194 173,194 172,195 172,195 171,195 171,195 170,196 170,196 169,196 169,196 168,197 168,197 167,197 167,197 166,197 166,197 165,198 165,198 164,198 164,198 163,198 163,198 162,199 162,199 161,199 161,199 160,199 160,199 159,199 159,199 158,199 158,199 157,200 157,200" stroke="#88ddff" stroke-width="1" /><text alignment-baseline="middle" fill="#88ddff" font-size="10" stroke="#88ddff" text-anchor="middle" x="130" y="120">2</text><text alignment-baseline="middle" fill="#88ddff" font-size="10" stroke="#88ddff" text-anchor="middle" x="150" y="120">2</text><text alignment-baseline="middle" fill="#88ddff" font-size="10" stroke="#88ddff" text-anchor="middle" x="170" y="120">2</text><text alignment-baseline="middle" fill="#88ddff" font-size="10" stroke="#88ddff" text-anchor="middle" x="120" y="140">2</text><text alignment-baseline="middle" fill="#88ddff" font-size="10" stroke="#88ddff" text-anchor="middle" x="140" y="140">2</text><text alignment-baseline="middle" fill="#88ddff" font-size="10" stroke="#88ddff" text-anchor="middle" x="160" y="140">2</text><text alignment-baseline="middle" fill="#88ddff" font-size="10" stroke="#88ddff" text-anchor="middle" x="180" y="140">2</text><text alignment-baseline="middle" fill="#88ddff" font-size="10" stroke="#88ddff" text-anchor="middle" x="110" y="160">2</text><text alignment-baseline="middle" fill="#88ddff" font-size="10" stroke="#88ddff" text-anchor="middle" x="130" y="160">2</text><text alignment-baseline="middle" fill="#88ddff" font-size="10" stroke="#88ddff" text-anchor="middle" x="150" y="160">2</text><text alignment-baseline="middle" fill="#88ddff" font-size="10" stroke="#88ddff" text-anchor="middle" x="170" y="160">2</text><text alignment-baseline="middle" fill="#88ddff" font-size="10" stroke="#88ddff" text-anchor="middle" x="190" y="160">2</text><text alignment-baseline="middle" fill="#88ddff" font-size="10" stroke="#88ddff" text-anchor="middle" x="120" y="180">2</text><text alignment-baseline="middle" fill="#88ddff" font-size="10" stroke="#88ddff" text-anchor="middle" x="140" y="180">2</text><text alignment-baseline="middle" fill="#88ddff" font-size="10" stroke="#88ddff" text-anchor="middle" x="160" y="180">2</text><text alignment-baseline="middle" fill="#88ddff" font-size="10" stroke="#88ddff" text-anchor="middle" x="180" y="180">2</text></svg>